<?xml version="1.0" standalone="no"?>
<!DOCTYPE svg PUBLIC "-//W3C//DTD SVG 20010904//EN"
 "http://www.w3.org/TR/2001/REC-SVG-20010904/DTD/svg10.dtd">
<svg version="1.0" xmlns="http://www.w3.org/2000/svg"
 width="700.000000pt" height="700.000000pt" viewBox="0 0 700.000000 700.000000"
 preserveAspectRatio="xMidYMid meet">
<metadata>
Created by potrace 1.11, written by Peter Selinger 2001-2013
</metadata>
<g transform="translate(0.000000,700.000000) scale(0.100000,-0.100000)"
fill="#000000" stroke="none">
<path d="M2648 6455 c-1 -1 -55 -5 -118 -8 -63 -4 -131 -9 -150 -12 -393 -70
-742 -280 -972 -586 -425 -565 -417 -1334 19 -1878 103 -129 289 -293 415
-365 135 -78 344 -159 478 -185 30 -5 71 -13 90 -17 19 -4 272 -9 563 -11 290
-1 764 -5 1055 -6 492 -4 533 -5 618 -25 286 -66 539 -214 709 -416 28 -32 55
-64 62 -71 6 -6 32 -43 56 -81 107 -166 169 -329 203 -539 12 -76 11 -263 -2
-356 -105 -752 -830 -1261 -1571 -1105 -445 95 -819 427 -968 860 -30 89 -30
89 -50 201 -23 121 -21 129 23 144 154 55 267 207 279 376 12 161 -64 312
-202 400 -78 50 -136 66 -237 66 -237 1 -429 -194 -430 -436 0 -191 122 -353
315 -418 9 -4 17 -17 18 -29 0 -23 2 -41 14 -127 24 -179 114 -408 230 -587
58 -89 67 -102 138 -181 237 -267 581 -454 917 -498 30 -4 64 -9 75 -11 32 -7
236 -6 306 1 453 45 889 313 1133 698 105 165 200 411 222 577 2 19 8 62 12
95 9 65 8 264 -2 330 -31 221 -85 386 -186 569 -77 138 -134 211 -264 341
-206 205 -449 340 -726 404 -179 41 -130 40 -1255 41 -528 1 -982 5 -1010 10
-307 52 -532 161 -733 354 -323 310 -463 738 -388 1186 27 160 117 373 219
517 164 231 412 413 675 495 37 11 72 21 77 23 244 53 435 52 644 -5 129 -34
171 -50 264 -96 198 -100 393 -274 512 -459 51 -78 109 -198 140 -288 27 -79
65 -250 65 -292 l0 -24 -164 -3 c-148 -3 -167 -5 -192 -24 -45 -33 -67 -70
-71 -121 -5 -53 3 -71 132 -298 34 -60 74 -130 87 -155 98 -176 143 -227 227
-254 67 -22 100 -24 159 -11 69 16 141 66 180 124 32 49 239 414 281 495 46
92 23 179 -60 225 -33 19 -54 21 -197 21 l-159 0 -12 83 c-17 128 -21 145 -57
264 -120 396 -426 748 -807 928 -90 43 -250 100 -308 110 -52 9 -84 15 -109
20 -14 3 -61 8 -105 11 -44 3 -85 7 -92 9 -6 2 -13 2 -15 0z m1678 -1647 c6
-7 -203 -376 -229 -405 -11 -13 -31 -23 -44 -23 -51 0 -53 3 -189 245 -12 22
-40 72 -63 110 l-40 70 47 5 c59 6 511 4 518 -2z m-1275 -2209 c191 -97 136
-389 -77 -407 -131 -11 -237 85 -237 214 0 162 170 267 314 193z"/>
<path d="M2518 5678 c-3 -7 -4 -57 -3 -110 l1 -98 -70 0 c-119 -1 -196 -42
-236 -126 -20 -43 -22 -63 -22 -205 1 -142 3 -162 23 -201 24 -48 55 -80 102
-105 28 -15 66 -18 282 -20 l249 -3 -1 -97 c-1 -54 -1 -103 -2 -109 -1 -7
-102 -10 -318 -9 -175 0 -322 -1 -328 -2 -8 -2 -12 -158 -6 -213 1 -3 73 -5
161 -5 137 1 160 -1 161 -15 1 -8 2 -53 3 -100 1 -47 4 -89 8 -95 7 -11 187
-13 204 -3 6 4 10 47 9 107 -1 56 1 101 4 102 3 1 38 3 76 5 84 4 91 5 132 27
45 24 72 54 96 106 17 38 20 66 19 197 0 137 -2 158 -22 198 -12 25 -36 58
-53 72 -61 51 -78 54 -337 54 -153 0 -240 4 -241 10 0 6 -1 48 -1 95 0 47 1
92 1 100 1 13 44 15 326 15 253 0 325 3 326 13 1 6 1 55 1 107 l1 95 -165 3
-165 2 1 108 1 107 -106 3 c-80 2 -108 -1 -111 -10z"/>
<path d="M4296 2832 c-90 -23 -157 -73 -203 -152 -30 -50 -43 -107 -46 -196
l-2 -77 -108 0 c-72 0 -107 -3 -108 -11 -2 -42 1 -200 5 -203 2 -3 51 -5 108
-6 l103 -2 0 -105 0 -105 -107 -3 -108 -3 0 -109 0 -110 109 0 110 0 0 -79 c0
-43 3 -92 7 -108 25 -103 117 -201 218 -232 53 -16 97 -19 354 -20 284 -1 292
0 293 19 0 11 0 52 0 90 0 39 0 79 0 90 -1 18 -11 19 -296 22 l-295 3 -29 30
c-26 26 -31 39 -34 97 -2 36 -1 71 2 77 4 6 53 12 111 13 l105 3 0 108 1 107
-111 0 -110 0 0 107 1 108 101 1 c56 1 105 4 110 7 5 3 8 52 8 109 l-1 103
-84 1 c-154 3 -137 -6 -135 73 2 81 27 126 77 139 18 4 153 8 301 7 152 0 271
4 274 9 8 12 6 196 -2 204 -13 13 -566 8 -619 -6z"/>
</g>
</svg>
